<svg width="243" height="117" viewBox="0 0 243 117" fill="none" xmlns="http://www.w3.org/2000/svg">
<path d="M50.9689 84.6538C46.9402 83.1723 42.1724 84.5115 39.4451 87.7992C36.6414 91.1793 36.1641 96.0529 38.3994 99.8694C40.6658 103.739 45.1752 105.675 49.5464 104.865C54.3742 103.97 57.7375 99.6386 57.9746 94.8586C57.9839 94.7639 57.9898 94.6666 57.9873 94.5641C57.9901 94.438 57.9808 94.32 57.966 94.2056C57.732 89.8921 55.0645 86.16 50.9689 84.6538ZM47.4757 100.869C44.0324 100.869 41.171 98.0071 41.171 94.5641C41.171 91.1216 44.0319 88.2594 47.4757 88.2594C50.9796 88.2594 53.703 91.1203 53.7804 94.5641C53.703 98.0079 50.9793 100.869 47.4757 100.869Z" fill="#272525"/>
<path d="M242.596 58.2972C242.24 48.7262 234.241 41.1162 224.72 40.9982C221.974 40.9982 219.228 40.9982 216.482 40.9982C209.2 40.9982 201.917 40.9982 194.635 40.9982C187.594 40.9982 180.552 40.9982 173.511 40.9982C173.214 40.7906 172.847 40.6526 172.406 40.6239C172.258 40.6143 172.109 40.6016 171.96 40.5858C171.785 40.5672 171.609 40.5478 171.434 40.5292C171.347 40.5198 171.26 40.5077 171.173 40.4976C171.166 40.4968 171.162 40.4963 171.156 40.4955C171.147 40.4942 171.141 40.4932 171.131 40.4916C169.702 40.275 168.286 40.0006 166.887 39.6336C163.252 38.68 159.57 37.1705 156.846 34.5043C155.129 32.8234 154.269 30.7887 153.213 28.6688C151.922 26.0763 150.478 23.5589 148.855 21.1595C146.155 17.1683 142.996 13.4576 139.318 10.3353C131.564 3.75438 121.661 -0.312952 111.422 0.0188745C106.256 0.186341 101.059 0.02017 95.8898 0.02017C90.9422 0.02017 85.9816 0.316793 81.0368 0.476236C77.768 0.58184 74.5616 0.611348 71.3274 1.10546C65.3261 2.02226 59.2869 3.98164 54.1633 7.28334C47.6652 11.471 42.8719 18.0421 41.8562 25.811C41.8559 25.8123 41.8559 25.8123 41.8557 25.8141C41.8306 25.964 41.8132 26.1154 41.7876 26.2653C41.6968 26.7946 41.6041 27.3229 41.4928 27.8486C41.2099 29.1873 40.8488 30.5104 40.4002 31.8033C39.4335 34.5897 37.8512 37.684 35.3248 39.4288C33.8975 40.4145 32.3158 40.8713 30.5808 40.8946C30.3401 40.8977 30.1219 40.9353 29.9242 40.9987C26.222 40.9987 22.5199 40.9987 18.8178 40.9987C15.4553 40.9987 12.1906 41.6095 9.21476 43.2653C5.42697 45.373 2.56166 48.8453 1.06404 52.8932C0.145178 55.377 0.0178309 57.9563 0.0178309 60.5674C0.0178309 65.4146 -0.0222886 70.2636 0.0178309 75.1108C0.0369847 77.4295 0.505217 79.6896 1.34876 81.7813C2.55933 89.2818 9.09595 95.06 16.9244 95.06H21.166H23.6166C23.6166 95.06 23.7965 93.595 24.119 91.7705C24.1428 91.6996 24.1635 91.6273 24.1757 91.5528C25.6063 82.8109 31.6431 75.293 40.1399 72.4963C48.742 69.6652 58.3512 71.9831 64.673 78.4762C68.0793 81.9749 70.2214 86.3955 71.0745 91.1788L71.5045 95.06H73.9898L158.726 95.1338L159.407 91.7314C159.425 91.6729 159.439 91.6136 159.449 91.5528C159.469 91.4332 159.492 91.3152 159.514 91.1961L159.719 90.1688C161.532 82.0248 167.369 75.1439 175.413 72.4963C184.015 69.6652 193.624 71.9831 199.946 78.4762C203.442 82.066 205.61 86.6256 206.416 91.5528C206.442 91.7115 206.497 91.8621 206.572 92.0029C206.71 92.9987 206.844 94.0187 207.006 95.06H225.141C232.076 95.06 237.998 90.5263 240.102 84.2777C241.442 81.9971 242.273 79.438 242.531 76.7689C242.699 75.0427 242.608 73.2733 242.608 71.5423C242.608 67.1353 242.76 62.701 242.596 58.2972ZM131.718 10.0907C131.764 10.0702 131.805 10.0454 131.848 10.021C132.306 10.3109 132.762 10.607 133.21 10.9148C136.831 13.4017 140.012 16.5139 142.762 19.9292C144.419 21.986 145.893 24.1948 147.235 26.4677C147.911 27.613 148.502 28.8034 149.087 29.9964C147.853 30.1129 146.66 30.044 145.648 29.1314C144.297 27.9122 142.986 26.6445 141.656 25.4021C138.169 22.1451 134.683 18.888 131.196 15.631C130.643 15.1141 130.102 14.626 129.852 13.8792C129.303 12.2408 130.244 10.7579 131.718 10.0907ZM116.861 4.43823C116.807 4.43072 116.803 4.43072 116.861 4.43823ZM45.1468 30.6569C45.4328 29.5786 45.6688 28.4856 45.8438 27.3837C45.9111 26.9613 45.9582 26.536 46.0224 26.1131C46.0333 26.0411 46.0361 25.9674 46.0488 25.8957C46.0563 25.8537 46.0788 25.7735 46.0441 25.9684C46.0079 26.1724 46.2002 25.2185 46.2344 25.0614C47.0601 21.2558 48.8225 17.7486 51.4887 14.9003C56.0481 10.0296 62.3057 7.36927 68.6702 5.88951C69.8446 5.61644 71.0285 5.38505 72.2194 5.19713C72.4619 5.15883 72.7052 5.12465 72.948 5.08816C72.9759 5.08402 72.9935 5.08117 73.007 5.07885C73.0344 5.07574 73.066 5.07212 73.103 5.06772C73.4641 5.02578 73.8249 4.98126 74.187 4.94658C75.0818 4.86064 75.9771 4.84667 76.8758 4.81768C82.8438 4.62511 88.8117 4.39577 94.781 4.24021C99.8355 4.10847 104.906 4.22754 109.963 4.22754C112.287 4.22754 114.566 4.14833 116.886 4.44211C116.959 4.45246 117.084 4.47058 117.246 4.49698C117.535 4.54409 117.825 4.59016 118.114 4.64219C118.769 4.7597 119.421 4.89507 120.069 5.047C121.435 5.36718 122.782 5.76191 124.105 6.22704C125.324 6.65541 126.532 7.16065 127.721 7.73061C125.162 10.1919 124.76 14.489 127.064 17.395C128.113 18.7192 129.517 19.8169 130.747 20.9651C134.669 24.6289 138.591 28.2925 142.513 31.9563C143.537 32.9127 144.666 33.7321 146.054 34.0738C147.69 34.4763 149.374 34.1421 151.018 33.9648C151.055 33.961 151.091 33.9545 151.127 33.9491C151.152 33.9918 151.175 34.0355 151.2 34.0782C152.967 37.0975 155.628 39.3484 158.684 40.9987C153.198 40.9987 147.713 40.9987 142.227 40.9987C141.681 36.35 139.921 32.0145 136.772 28.3665C134.332 25.539 131.105 23.2708 128.235 20.9074C124.865 18.1327 121.494 15.358 118.124 12.5832C113.374 8.67251 107.803 6.41572 101.595 6.43151C93.843 6.45118 86.0893 6.58501 78.3375 6.66188C74.0905 6.70381 70.077 6.92485 65.9664 8.28917C59.1485 10.5519 53.5869 15.5979 51.2646 22.4754C49.9857 26.2627 50.1433 30.1452 50.1433 34.071C50.1433 36.3803 50.1433 38.6896 50.1433 40.9987C46.6827 40.9987 43.2221 40.9987 39.7614 40.9987C42.3992 38.2405 44.1451 34.4326 45.1468 30.6569ZM53.3746 45.205C63.968 45.205 74.5616 45.205 85.1552 45.205C97.161 45.205 109.167 45.205 121.173 45.205C127.795 45.205 134.417 45.205 141.039 45.205C141.038 46.4438 141.011 47.6818 141.011 48.9074C141.011 53.5437 141.011 58.1799 141.011 62.8162C141.011 66.3728 141.398 70.083 139.487 73.271C137.087 77.2721 132.874 78.77 128.434 78.7953C120.513 78.8404 112.592 78.8857 104.671 78.9307C98.4047 78.9664 92.1308 79.0971 85.8644 79.0379C82.2352 79.0034 78.9594 77.1833 77.1748 73.9999C74.5698 69.1706 70.5719 65.1814 65.6271 62.7631C64.0666 61.9998 62.4341 61.3827 60.7612 60.9158C58.8686 60.3875 56.8101 60.2822 55.1023 59.2347C52.7979 57.8212 51.563 55.4003 51.5452 52.7327C51.5286 50.2238 51.525 47.7144 51.525 45.2053C52.1413 45.205 52.7581 45.205 53.3746 45.205ZM51.5273 40.9984C51.5338 37.3745 51.5452 33.7508 51.5452 30.1274C51.5452 24.4343 53.4393 19.0777 57.4994 14.9904C61.8577 10.6032 68.4049 8.22602 74.5429 8.10152C82.52 7.93949 90.5035 7.94337 98.4818 7.86443C103.061 7.81913 107.48 8.01766 111.731 10.0332C115.284 11.7172 118.212 14.4637 121.222 16.942C124.631 19.7486 128.04 22.5549 131.449 25.3614C135.595 28.7749 138.941 32.6968 140.332 38.0291C140.587 39.0062 140.75 39.9983 140.857 40.9989C136.35 40.9989 131.843 40.9989 127.335 40.9989C115.053 40.9989 102.771 40.9989 90.4898 40.9989C79.4106 40.9989 68.3314 40.9989 57.2522 40.9989C55.3436 40.9984 53.4352 40.9984 51.5273 40.9984ZM238.401 75.1315C238.383 77.3252 237.884 79.466 236.91 81.4H207.286C203.886 75.3666 198.283 70.6433 191.57 68.4393C181.65 65.1824 170.399 67.9527 163.075 75.3681C161.299 77.1662 159.779 79.2017 158.553 81.4H72.0123C68.6125 75.3666 63.0097 70.6433 56.2963 68.4393C46.3767 65.1824 35.1257 67.9527 27.8017 75.3681C26.0256 77.1662 24.5054 79.2017 23.2799 81.4H5.71842C5.69823 81.3614 5.67597 81.3242 5.65604 81.2853C4.47005 78.9651 4.22468 76.5005 4.22468 73.9474C4.22468 71.2775 4.22468 68.6073 4.22468 65.9374C4.22468 60.6298 3.59364 55.107 7.02191 50.5986C9.74511 47.0176 13.9429 45.2123 18.3682 45.2053C22.1645 45.1991 25.9606 45.2053 29.7572 45.2053C36.5524 45.2053 43.3476 45.2053 50.1431 45.2053C50.1431 46.2991 50.1431 47.393 50.1431 48.4868C50.1431 52.2572 49.7455 56.0999 52.6421 59.0566C55.3205 61.7904 59.253 61.7376 62.6549 63.0017C65.8896 64.2038 68.8695 66.0713 71.3334 68.4888C73.1928 70.3133 74.729 72.4179 75.9642 74.7078C78.2973 78.8699 82.4832 80.4596 87.0338 80.4335C90.3955 80.4144 93.757 80.3952 97.1188 80.376C106.402 80.323 115.686 80.2702 124.969 80.2174C127.381 80.2037 129.958 80.3931 132.332 79.8954C138.152 78.6747 142.355 73.5764 142.413 67.6465C142.486 60.1675 142.421 52.6848 142.415 45.205C147.301 45.205 152.188 45.205 157.074 45.205C167.691 45.205 178.308 45.205 188.925 45.205C196.836 45.205 204.748 45.205 212.659 45.205C216.508 45.205 220.363 45.2674 224.212 45.205C224.381 45.2024 224.551 45.205 224.721 45.205C231.816 45.2928 238.025 50.9056 238.382 58.1015C238.581 62.1088 238.402 66.1629 238.402 70.1735C238.401 71.8262 238.415 73.4791 238.401 75.1315Z" fill="#272525"/>
<path d="M54.5554 74.5312C46.0581 71.3512 35.9488 74.0938 30.219 81.1222C24.3975 88.2632 23.4787 98.5071 28.3021 106.445C33.1009 114.342 42.4378 118.359 51.4768 116.585C61.617 114.595 68.8786 105.334 68.9782 95.1216C68.8884 85.9319 63.162 77.7522 54.5554 74.5312ZM53.2623 111.721C46.1746 114.286 38.2998 112.161 33.428 106.428C28.6401 100.795 28.0903 92.3883 31.8388 86.0792C35.58 79.7822 43.1336 76.2908 50.3582 77.7149C58.6828 79.3557 64.6886 86.6569 64.7714 95.1218C64.7002 102.389 60.181 109.216 53.2623 111.721Z" fill="#272525"/>
<path d="M186.716 84.6538C182.687 83.1723 177.919 84.5115 175.192 87.7992C172.389 91.1793 171.911 96.0529 174.147 99.8694C176.413 103.739 180.922 105.675 185.294 104.865C190.121 103.97 193.485 99.6383 193.722 94.8586C193.731 94.7639 193.737 94.6666 193.734 94.5641C193.737 94.438 193.728 94.32 193.713 94.2056C193.479 89.8921 190.812 86.16 186.716 84.6538ZM183.223 100.869C179.78 100.869 176.918 98.0071 176.918 94.5641C176.918 91.1216 179.779 88.2594 183.223 88.2594C186.727 88.2594 189.45 91.1203 189.528 94.5641C189.45 98.0079 186.726 100.869 183.223 100.869Z" fill="#272525"/>
<path d="M190.303 74.5312C181.805 71.3512 171.696 74.0938 165.966 81.1222C160.144 88.2632 159.225 98.5071 164.049 106.445C168.847 114.342 178.185 118.359 187.223 116.585C197.364 114.595 204.625 105.334 204.725 95.1216C204.636 85.9319 198.909 77.7522 190.303 74.5312ZM189.009 111.721C181.922 114.286 174.047 112.161 169.175 106.428C164.387 100.795 163.837 92.3883 167.586 86.0792C171.327 79.7822 178.881 76.2908 186.105 77.7149C194.43 79.3557 200.436 86.6569 200.518 95.1218C200.447 102.389 195.928 109.216 189.009 111.721Z" fill="#272525"/>
<path d="M25.167 48.2678C25.1655 47.8687 24.8458 47.5938 24.4658 47.5666C19.0647 47.1802 8.1349 47.6875 7.98012 55.1078C7.9721 55.4867 8.30781 55.809 8.68131 55.809C13.8725 55.809 19.064 55.809 24.2554 55.809C24.469 55.809 24.6305 55.7288 24.7428 55.6089C24.7456 55.6069 24.7482 55.6058 24.7511 55.6035C25.4409 55.0584 25.1318 52.8327 25.1443 52.1027C25.166 50.8249 25.1717 49.5462 25.167 48.2678ZM23.6301 54.7465C23.6226 54.7568 23.6166 54.7672 23.6099 54.7775C23.6109 54.7713 23.6176 54.7581 23.6334 54.7366C23.6321 54.7398 23.6311 54.7439 23.6301 54.7465ZM23.7517 51.4111C23.7429 52.1586 23.7323 52.9067 23.7033 53.6537C23.6937 53.9006 23.6591 54.1584 23.6624 54.4066C18.9237 54.4066 14.1849 54.4066 9.44616 54.4066C10.0117 50.9382 14.1901 49.7699 17.2581 49.2807C19.3859 48.9416 21.598 48.8238 23.7621 48.9289C23.7623 49.7564 23.7616 50.5839 23.7517 51.4111Z" fill="#272525"/>
<path d="M231.631 50.5764C229.085 48.448 225.447 46.882 222.075 47.3195C219.684 47.6293 217.815 49.407 218.532 51.9309C219.372 54.8883 222.489 56.9631 225.162 58.0668C227.745 59.1335 232.289 60.0319 234.098 57.1658C234.139 57.1169 234.176 57.0618 234.206 56.9916C234.241 56.9282 234.263 56.8656 234.278 56.804C235.152 54.41 233.417 52.0691 231.631 50.5764ZM232.995 56.2834C231.414 59.0941 226.357 57.2362 224.304 56.1139C222.592 55.1785 218.806 52.5055 219.918 50.0385C221.2 47.1937 226.562 49.1238 228.407 50.0978C230.214 51.0519 234.081 53.7117 232.995 56.2834Z" fill="#272525"/>
<path d="M76.1257 39.1806C84.1084 39.1806 92.0909 39.1806 100.074 39.1806C106.843 39.1806 113.613 39.1806 120.382 39.1806C122.793 39.1806 125.204 39.1806 127.615 39.1806C130.371 39.1806 132.972 38.3272 133.991 35.4539C134.725 33.3879 134.134 31.0803 132.556 29.5892C132.505 29.5341 132.451 29.4818 132.391 29.4336C128.478 26.3167 124.551 23.2169 120.653 20.0809C116.978 17.1242 113.41 13.7205 109.135 11.6341C104.924 9.57917 100.383 9.11922 95.7526 9.11922C90.5523 9.11922 85.3521 9.11922 80.1521 9.11922C77.6031 9.11922 75.0411 9.0144 72.5113 9.37599C67.654 10.0702 63.0553 12.49 59.7129 16.0845C56.2722 19.7848 54.2295 24.5287 53.8358 29.5584C53.7108 31.1551 53.5602 33.1109 53.9634 34.6735C54.6571 37.3607 57.0381 39.0701 59.7541 39.1803C65.1922 39.4016 70.6831 39.1806 76.1257 39.1806ZM57.9829 33.1614C57.6891 29.3555 58.4801 25.4331 60.4113 22.1358C62.5738 18.444 66.0722 15.5624 70.1481 14.2312C73.2319 13.2241 76.3431 13.3266 79.5374 13.3266C84.4674 13.3266 89.3977 13.3266 94.3277 13.3266C97.3129 13.3266 100.312 13.28 103.238 13.9638C107.171 14.8832 110.39 17.1405 113.487 19.6414C118.265 23.4988 123.053 27.3399 127.856 31.1658C128.376 31.5802 128.896 31.9943 129.416 32.4087C130.26 33.1433 130.433 34.5707 129.114 34.9414C128.767 35.039 128.279 34.9737 127.92 34.9737C125.845 34.9737 123.769 34.9737 121.693 34.9737C115.227 34.9737 108.761 34.9737 102.295 34.9737C94.6023 34.9737 86.9092 34.9737 79.2164 34.9737C73.6232 34.9737 68.0301 34.9737 62.4369 34.9737C60.798 34.9737 58.1615 35.4717 57.9829 33.1614Z" fill="#272525"/>
<path d="M66.1805 58.2172H77.5312C78.4568 58.2172 79.2139 57.4601 79.2139 56.5345V54.6597C79.2139 53.7344 78.4568 52.9771 77.5312 52.9771H66.1805C65.2549 52.9771 64.4978 53.7344 64.4978 54.6597V56.5345C64.4975 57.4598 65.2549 58.2172 66.1805 58.2172Z" fill="#272525"/>
</svg>
