<svg width="231" height="234" viewBox="0 0 231 234" fill="none" xmlns="http://www.w3.org/2000/svg">
<path d="M36.224 230.674V134.439L37.9591 85.2708L85.7769 2.67383M85.7769 2.67383L86.018 230.672M85.7769 2.67383L184.651 90.8158M85.9229 140.802L36.224 182.556L86.0019 215.422M98.2 134.439L135.139 85.2708L163.483 134.439M192.394 119.826L192.402 173.517M27.2576 85.2708H169.143C182.664 85.2708 193.726 96.3334 193.726 109.855V109.855C193.726 123.376 182.664 134.439 169.143 134.439H27.2576C13.7364 134.439 2.67383 123.376 2.67383 109.855V109.855C2.67375 96.3334 13.7364 85.2708 27.2576 85.2708Z" stroke="black" stroke-width="5.34762" stroke-miterlimit="22.9256" stroke-linecap="round" stroke-linejoin="round"/>
<path d="M160.199 173.182H225.842C228.575 173.182 230.811 175.418 230.811 178.151V193.069C230.81 195.803 228.575 198.039 225.842 198.039H160.199C157.466 198.039 155.23 195.803 155.23 193.069V178.151C155.23 175.417 157.466 173.182 160.199 173.182Z" fill="black" stroke="black" stroke-width="0.0756958"/>
<path d="M160.199 173.182H225.842C228.575 173.182 230.811 175.418 230.811 178.151V193.069C230.81 195.803 228.575 198.039 225.842 198.039H160.199C157.466 198.039 155.23 195.803 155.23 193.069V178.151C155.23 175.417 157.466 173.182 160.199 173.182ZM160.199 176.663C159.789 176.663 159.419 176.826 159.156 177.089C158.887 177.359 158.719 177.735 158.719 178.151V193.069C158.719 193.485 158.887 193.861 159.156 194.131C159.419 194.394 159.789 194.557 160.199 194.557H225.842C226.253 194.556 226.621 194.394 226.884 194.131C227.154 193.861 227.321 193.485 227.321 193.069V178.151C227.321 177.735 227.154 177.359 226.884 177.089C226.621 176.826 226.253 176.663 225.842 176.663H160.199Z" fill="black" stroke="black" stroke-width="0.0756958"/>
</svg>
