<svg width="198" height="168" viewBox="0 0 198 168" fill="none" xmlns="http://www.w3.org/2000/svg">
<path d="M145.159 3.5189C148.641 3.5189 152.113 3.96838 155.477 4.85489C158.982 5.7785 162.379 7.17975 165.574 9.01991L165.647 9.06216L165.722 9.10053C168.177 10.3472 170.442 11.8746 172.454 13.6403C174.378 15.3288 176.138 17.2935 177.684 19.4801C179.168 21.5783 180.507 23.9527 181.663 26.5376C182.764 29.001 183.739 31.741 184.558 34.6819C185.051 36.4483 184.973 37.1558 184.928 37.3568C184.758 37.4453 184.16 37.6824 182.639 37.6824L182.566 37.6822C170.299 37.6214 158.189 37.5906 146.574 37.5906C133.891 37.5906 121.332 37.6273 109.246 37.6997C109.213 37.6999 109.18 37.7 109.148 37.7C107.251 37.7 106.683 37.3592 106.606 37.3064C106.558 37.2095 106.294 36.532 106.761 34.0638C107.612 29.5651 109.266 25.3409 111.676 21.5086C113.985 17.8381 116.938 14.6 120.452 11.8841C127.431 6.48983 136.206 3.51898 145.159 3.5189H145.159ZM145.159 0.297119C125.631 0.297344 107.401 13.3419 103.595 33.4652C102.643 38.4992 103.552 40.9219 109.148 40.9219C109.187 40.9219 109.227 40.9217 109.266 40.9215C121.702 40.8469 134.137 40.8124 146.574 40.8124C158.566 40.8124 170.558 40.8445 182.55 40.9039C182.58 40.9041 182.61 40.9042 182.639 40.9042C188.038 40.9042 188.952 38.4469 187.662 33.817C184.31 21.7885 178.248 11.849 167.182 6.22797C160.129 2.1662 152.551 0.297044 145.159 0.297119Z" fill="black"/>
<path d="M181.604 47.9641C183.5 47.9641 184.069 48.3048 184.145 48.3576C184.193 48.4547 184.457 49.1322 183.99 51.6004C183.139 56.0991 181.486 60.3233 179.075 64.1557C176.766 67.8262 173.814 71.0643 170.3 73.7802C163.32 79.1746 154.546 82.1453 145.592 82.1453C142.11 82.1453 138.639 81.6959 135.275 80.8094C131.77 79.8859 128.373 78.4846 125.178 76.6443L125.104 76.6021L125.029 76.5637C122.574 75.317 120.31 73.7896 118.297 72.0239C116.373 70.3355 114.614 68.3707 113.067 66.1842C111.583 64.086 110.245 61.7114 109.088 59.1267C107.987 56.6633 107.012 53.9232 106.193 50.9824C105.701 49.2161 105.778 48.5085 105.823 48.3075C105.993 48.2189 106.591 47.9819 108.112 47.9819L108.185 47.9821C120.451 48.0428 132.56 48.0736 144.176 48.0736C156.86 48.0736 169.419 48.0369 181.505 47.9645C181.538 47.9642 181.571 47.9642 181.604 47.9642L181.604 47.9641ZM181.603 44.7423C181.565 44.7423 181.524 44.7425 181.485 44.7427C169.048 44.8172 156.614 44.8518 144.176 44.8518C132.186 44.8518 120.191 44.8196 108.201 44.7602C108.171 44.7601 108.142 44.76 108.112 44.76C102.713 44.76 101.799 47.2172 103.089 51.8472C106.442 63.8757 112.503 73.8152 123.57 79.4362C130.622 83.4981 138.2 85.3671 145.592 85.3671C165.12 85.3671 183.35 72.3223 187.156 52.1991C188.108 47.1649 187.2 44.742 181.603 44.7423Z" fill="black"/>
<path d="M46.5991 3.22178C46.8091 3.22178 46.9382 3.24111 47.0072 3.25625C47.0969 3.43112 47.3362 4.04723 47.3213 5.61849C47.0745 31.544 46.9708 55.5267 47.0042 78.9371C47.0071 80.9066 46.6549 81.4945 46.5992 81.5746C46.5468 81.5984 46.3082 81.6888 45.7206 81.6888C45.1112 81.6888 44.338 81.5964 43.357 81.4062C40.3225 80.818 37.3887 79.855 34.6372 78.5438C31.9816 77.2785 29.474 75.6792 27.1841 73.7905C24.9473 71.9456 22.9094 69.8181 21.1273 67.467C19.365 65.1423 17.8518 62.5983 16.6296 59.9056C14.0265 54.1708 12.7771 47.8104 13.0165 41.5123C13.1403 38.2548 13.6592 35.0143 14.5586 31.881C15.4939 28.6225 16.8475 25.4596 18.5817 22.4801L18.6243 22.4069L18.663 22.3316C19.9208 19.883 21.4586 17.6252 23.2335 15.6211C24.9307 13.7046 26.9035 11.9539 29.0971 10.4174C31.202 8.94307 33.5826 7.61532 36.1726 6.47099C38.641 5.38045 41.3856 4.41879 44.3301 3.61267C45.2773 3.35335 46.0406 3.22178 46.5991 3.22178ZM46.5989 0C45.7047 0 44.6631 0.181095 43.4792 0.505146C31.4355 3.80238 21.4685 9.81887 15.7971 20.8593C0.887798 46.4747 15.0272 79.1963 42.7438 84.569C43.8647 84.7863 44.856 84.9105 45.7206 84.9105C48.7626 84.9105 50.2323 83.3717 50.2259 78.9325C50.191 54.5047 50.3102 30.0759 50.5427 5.64906C50.5817 1.56211 49.2257 0 46.5989 0Z" fill="black"/>
<path d="M58.8821 3.97532C59.4914 3.97532 60.2644 4.06778 61.2455 4.25794C64.28 4.84618 67.2137 5.80919 69.9653 7.12031C72.6209 8.38564 75.1285 9.98492 77.4184 11.8736C79.6552 13.7185 81.693 15.8461 83.4752 18.1972C85.2374 20.5219 86.7506 23.0659 87.9729 25.7585C90.576 31.4934 91.8254 37.8537 91.586 44.1519C91.4622 47.4094 90.9433 50.6499 90.0439 53.7832C89.1085 57.0417 87.755 60.2046 86.0208 63.184L85.9782 63.2573L85.9395 63.3326C84.6817 65.7812 83.1439 68.0389 81.3691 70.0431C79.6719 71.9595 77.6991 73.7102 75.5055 75.2467C73.4005 76.7211 71.0199 78.0489 68.4299 79.1932C65.9615 80.2837 63.2169 81.2454 60.2725 82.0515C59.3252 82.3108 58.5618 82.4423 58.0036 82.4423C57.7934 82.4423 57.6642 82.423 57.5953 82.4078C57.5056 82.2329 57.2664 81.6168 57.2813 80.0456C57.528 54.12 57.6317 30.1373 57.5983 6.72688C57.5954 4.75732 57.9477 4.16953 58.0033 4.08943C58.0557 4.06568 58.2943 3.97525 58.8819 3.97525L58.8821 3.97532ZM58.8818 0.75354C55.8398 0.753615 54.3701 2.29235 54.3765 6.73159C54.4114 31.1594 54.2921 55.5882 54.0597 80.015C54.0208 84.1021 55.3768 85.6642 58.0036 85.6642C58.8978 85.6642 59.9393 85.4831 61.1232 85.159C73.1669 81.8619 83.1339 75.8453 88.8054 64.8048C103.715 39.1894 89.5753 6.46786 61.8587 1.09513C60.7377 0.877768 59.7465 0.75354 58.8818 0.75354Z" fill="black"/>
<path d="M140.07 93.0127C148.757 93.0127 155.423 93.1618 161.686 93.496C164.871 93.6659 167.969 94.2272 170.894 95.1642C173.71 96.0661 176.385 97.3217 178.844 98.896C181.245 100.433 183.448 102.276 185.391 104.377C187.316 106.457 188.986 108.787 190.355 111.303C193.342 116.795 194.851 123.11 194.718 129.566C194.648 132.943 194.132 136.358 193.184 139.714C192.198 143.207 190.737 146.659 188.842 149.976C186.258 153.928 182.683 157.322 178.5 159.795C176.203 161.153 173.727 162.228 171.143 162.991C168.369 163.81 165.44 164.276 162.437 164.377C154.489 164.643 146.487 164.679 139.708 164.679C137.322 164.679 134.894 164.674 132.546 164.67C130.195 164.665 127.763 164.66 125.37 164.66C121.175 164.66 115.635 164.673 109.99 164.774C109.842 164.777 109.695 164.778 109.554 164.778C107.464 164.778 106.12 164.489 105.559 163.917C104.974 163.321 104.685 161.871 104.723 159.724C105.082 139.607 105.12 119.121 104.839 97.0962C104.807 94.5599 105.245 93.8391 105.434 93.647C105.601 93.478 106.217 93.0851 108.329 93.0851C108.405 93.0851 108.482 93.0856 108.56 93.0866C110.949 93.1175 113.476 93.1326 116.287 93.1326C120.263 93.1326 124.3 93.1021 128.204 93.0725C132.096 93.0431 136.12 93.0127 140.07 93.0127ZM140.07 89.7909C132.145 89.7909 124.214 89.9108 116.287 89.9108C113.725 89.9108 111.162 89.8983 108.602 89.8651C108.51 89.8639 108.419 89.8633 108.329 89.8633C103.224 89.8633 101.55 91.7967 101.618 97.1375C101.884 117.978 101.874 138.828 101.502 159.667C101.388 166.047 103.758 168 109.554 168C109.716 168 109.881 167.998 110.048 167.995C115.155 167.904 120.262 167.882 125.371 167.882C130.149 167.882 134.93 167.901 139.708 167.901C147.324 167.901 154.937 167.852 162.545 167.597C176.126 167.142 186.201 159.955 191.591 151.658C207.844 123.34 191.129 91.841 161.858 90.2789C154.607 89.8918 147.341 89.7909 140.07 89.7909Z" fill="black"/>
<path d="M59.9667 93.134C64.6907 93.134 69.5033 93.1756 74.1575 93.2158C78.8255 93.2561 83.6524 93.2978 88.4044 93.2978C89.73 93.2978 90.971 93.2947 92.197 93.2883L92.2338 93.2882C93.0922 93.2882 93.4478 93.4563 93.5124 93.5212C93.5158 93.5246 93.8547 93.8827 93.8501 95.4598C93.7808 120.394 93.7368 141.357 93.7467 162.619C93.7472 163.715 93.5441 164.168 93.4729 164.24C93.406 164.308 92.9785 164.502 91.9278 164.502L91.8719 164.502C84.9806 164.459 77.9769 164.441 71.2037 164.423C59.2651 164.393 46.9201 164.361 34.7893 164.192C30.7114 164.135 26.682 162.426 23.1269 160.917C22.8131 160.784 22.4904 160.647 22.1735 160.514C18.7644 158.539 15.7028 156.103 13.0713 153.272C10.4716 150.475 8.33105 147.336 6.70915 143.943C5.0984 140.573 4.03094 137.019 3.53644 133.38C3.03406 129.683 3.13326 125.964 3.83127 122.325C4.57625 118.441 5.87777 114.753 7.69965 111.363C9.49928 108.014 11.7652 105.033 14.4346 102.501C19.9778 97.2428 26.9243 94.224 34.5228 93.7705C41.9038 93.3302 49.7509 93.134 59.9667 93.134ZM59.9667 89.9122C51.4094 89.9122 42.8578 90.0459 34.331 90.5543C16.9925 91.5891 3.9211 104.755 0.6671 121.718C-2.43181 137.873 5.43534 154.638 20.7403 163.406C24.763 165.091 29.5583 167.341 34.7446 167.413C53.7778 167.678 72.8156 167.605 91.8518 167.724C91.8773 167.724 91.9025 167.724 91.9278 167.724C95.4446 167.724 96.9699 166.167 96.9684 162.618C96.9579 140.235 97.0096 117.852 97.0718 95.4687C97.0815 92.1276 95.9084 90.0663 92.2335 90.0664C92.2163 90.0664 92.1987 90.0665 92.1815 90.0666C90.9219 90.0732 89.6645 90.076 88.4045 90.076C78.9283 90.076 69.4425 89.9122 59.9667 89.9122Z" fill="black"/>
</svg>
